<svg xmlns="http://www.w3.org/2000/svg" viewBox="0 0 138 254"><defs><style>.cls-1{fill:#f5eb36;}.cls-2{fill:#00b05b;}.cls-3{fill:#00b1f7;}.cls-4{fill:#eb2895;}</style></defs><g id="Layer_2" data-name="Layer 2"><g id="Layer_2-2" data-name="Layer 2"><polygon class="cls-1" points="101 148 83 254 51 254 35.15 138 101 148"/><path class="cls-2" d="M93,18,108,0q.5,11.51,1,23l23,7L111.21,40.15,110,64,99,51A89.07,89.07,0,0,0,84,72c-5,9.75-5.85,16.14-15,47-1.27,4.29-2.33,7.79-3,10a208.77,208.77,0,0,1-3-38c.12-8.32.72-14.45,1-17,1-8.76,2-18,6-29a92,92,0,0,1,9-18L72,12Z"/><path class="cls-3" d="M123,74l-9,12-14-4,7,11a44.65,44.65,0,0,0-11,8,37.06,37.06,0,0,0-9,13,35.1,35.1,0,0,0-2,18,47.45,47.45,0,0,1,15-20,46.86,46.86,0,0,1,16-8l9,10V98l13-6-13-3Q124,81.5,123,74Z"/><path class="cls-4" d="M24,45l6,19H46L36,74a42.64,42.64,0,0,1,9,9,44.11,44.11,0,0,1,8,20,45.27,45.27,0,0,1-5,27,54.28,54.28,0,0,0-2-18A46.51,46.51,0,0,0,36,93,44.35,44.35,0,0,0,23,83L9,92q2-8.5,4-17L0,64H19Q21.51,54.51,24,45Z"/></g></g></svg>