<svg width="24px" height="24px" fill="currentColor">
<path d="M217.4,36.5c-0.3,0.3-0.6,1.1-0.6,1.6c0,0.9-0.1,1-2.4,0.6c-5.1-1-11.8,0.5-16.3,3.5c-1.3,0.9-3.7,3.1-5.3,4.9c-7.3,8.2-10,11.1-13.8,14.6c-18,16.7-45.2,35.4-71.9,49.5c-27.3,14.4-52.8,24.2-70.3,27.1c-8.5,1.4-12.4,3.3-16.7,8c-2.2,2.4-5,7.3-5,8.8c0,0.4-0.5,0.5-1.8,0.3c-1.6-0.2-1.9-0.1-2.4,0.8c-1,1.8-1.1,6.4-0.3,8.5c0.6,1.6,0.9,1.8,2.1,1.6c1.3-0.2,1.4,0,1.9,1.8c1.4,5.6,6.4,12.1,11.5,14.8c3.3,1.7,7.3,2.8,10.5,2.8h2.4l0.3,2.9c1.4,13.5,13.4,26.3,28.7,30.4c5,1.4,16.1,1.5,21.8,0.3c4.2-0.9,9.8-2.8,14.4-4.7c3.4-1.4,111.4-63.7,117.3-67.6c5.4-3.6,13.9-12.1,17.5-17.5c5.4-8.2,7.2-14.3,7.2-23.7c0-7.5-0.9-11.5-4.1-17.9c-1.6-3.3-2.9-5-5.4-7.6c-1.8-1.8-3.9-3.7-4.6-4.2l-1.2-0.9l1.2-2.4c4.5-8.9,2.9-19.8-3.9-26.9l-2.2-2.3l0.9-1l1-1l-0.9-1.2C224.5,37.4,218.8,35,217.4,36.5z M195,65.3c0.7,0.5,1,1.2,1,2.3c0,2.2-3.1,8.7-6.7,14.1c-4.7,7.1-7.2,8.5-18,10.4c-10.1,1.7-10.3,1.8-15.1,9.8c-6.5,10.8-8,11.9-17.6,12.8c-9.9,1-10.7,1.2-13.9,4.6c-1.5,1.6-4.1,4.8-5.8,7.2c-4.9,7.1-7.7,8.3-19.4,8.3c-9.4,0-9.5,0-15.3,7.1c-5.7,6.9-6.8,7.9-10.3,9.6c-2.2,1.1-3.9,1.4-7.7,1.8c-5.4,0.5-14.1,0-16.3-1c-2.1-1-2.3-3.6-0.3-5.1c1.1-0.8,1.5-0.8,5.1-0.3c5.4,0.7,13.6,0.3,16.3-0.9c2-0.9,3.5-2.4,10.6-10.7c2.3-2.7,3.6-3.8,6-5c3-1.5,3-1.5,11.5-1.8c10.9-0.3,11.2-0.5,15-6c3.3-4.9,8.1-10.1,10.4-11.3c2.5-1.3,6.9-2.2,13-2.7c7.8-0.6,7.7-0.6,13.9-10.8c5.3-8.7,6.8-9.7,17.8-11.6c3.9-0.7,7.9-1.6,8.8-1.9c3.4-1.4,6.9-6.1,10.8-14.5c1.2-2.4,2.4-4.5,2.7-4.7C192.6,64.4,194,64.6,195,65.3z M226.8,81c4.9,2.4,9.6,9,11.5,16.3c1.2,4.7,1.2,13.1-0.2,17.5c-1.4,4.5-3.8,9.2-6.6,13c-3,3.9-9.9,10.6-14,13.4c-6.3,4.2-114,66-117.7,67.6c-2.1,0.9-5.9,2.2-8.4,2.8c-4,1.1-5.4,1.2-12,1.3c-6.5,0-7.8-0.1-10.9-1c-5.3-1.7-9.4-4.1-13.4-7.8c-6.2-5.8-9.2-11.6-9.2-17.8c0-6.5,2.4-9.2,10.8-12.1c25.4-9.1,89.8-44.6,132-72.7c9-6,18.9-13.3,25.1-18.5C218.3,79.2,221.9,78.7,226.8,81z"/><path fill= d="M222.4,94.9c-1.2,1.5-1.2,1.7,0,5.1c1.2,3.4,1.3,8.7,0.3,12.2c-1.7,5.5-6.7,11.8-13.7,16.9c-2.6,1.9-3,2.4-3.1,3.9c-0.1,1.3,0.1,1.8,1.1,2.6c0.7,0.5,1.7,1,2.3,1c1.5,0,7.8-4.9,11.8-9.1c3.7-4,5.8-7.2,7.7-11.7c1.1-2.6,1.2-3.5,1.2-8.9c0-5.1-0.2-6.5-1.1-9.1c-0.6-1.7-1.5-3.3-1.9-3.6C225.3,93.3,223.4,93.6,222.4,94.9z"/><path d="M167.7,55.3c-8.4,1.8-11.2,3.1-21.4,10.4c-15.6,11.2-30.5,20.6-44,27.9c-8.1,4.4-25,12.7-33.1,16.2c-7,3-8.7,4.2-13.9,9.4c-3.7,3.7-8.6,10-7.8,10c0.2,0,2.5-0.6,5.2-1.4c4.8-1.4,4.9-1.5,8.8-5.1c2.2-2,4.8-4.1,5.8-4.5c1-0.5,5.4-2.5,9.7-4.4c27.2-12.3,51.6-26.6,75.3-43.9c6.1-4.4,8.6-5.8,13.2-7c2.8-0.7,3.4-1.2,7.2-4.6l4.1-3.8h-2.5C172.9,54.5,169.9,54.9,167.7,55.3z"/>
</svg>