<svg xmlns="http://www.w3.org/2000/svg" viewBox="0 0 837 254"><defs><style>.cls-1{fill:#f5853b;}.cls-2{fill:#07acec;}.cls-3{fill:#04a65a;}.cls-4{fill:#fff019;}.cls-5{fill:#f58539;}.cls-6{fill:#f32594;}.cls-7{fill:#df3193;}.cls-8{fill:#00a85a;}.cls-9{fill:#0d9d57;}.cls-10{fill:#02a95b;}.cls-11{fill:#39a1c8;}.cls-12{fill:#e92990;}.cls-13{fill:#05a75c;}.cls-14{fill:#eb2793;}.cls-15{fill:#08abf0;}</style></defs><g id="Layer_2" data-name="Layer 2"><g id="Layer_1-2" data-name="Layer 1"><polygon class="cls-1" points="10 138 26 252 54 252 70 148 10 138"/><path class="cls-1" d="M67,138,41.79,121.24,16,137l9-28L0,89l30,1q5.51-15.5,11-31,5.51,15.5,11,31H82L58,108Z"/><path class="cls-2" d="M87,140q-9.5,55-19,110h42q2-18.5,4-37l9,27h19l3-26,12,31,32-1L159,134H135l-6,32-9-26Z"/><path class="cls-3" d="M400,153l-23,25c-.46-1.05-4-8.82-11-10-8.47-1.43-16.28,7.8-18,16-1.86,8.85,2.92,18.58,12,24V195l45-5q-.5,12.5-1,25h-7a57.71,57.71,0,0,1-15,23,53.05,53.05,0,0,1-27,14c-4.87.88-16.18,2.91-28-3-11-5.52-16.12-14.76-19-20a59.27,59.27,0,0,1-7-25,72.37,72.37,0,0,1,10-42,64.12,64.12,0,0,1,22-23,50.64,50.64,0,0,1,23-8,48,48,0,0,1,21,3A48.64,48.64,0,0,1,400,153Z"/><path class="cls-4" d="M408,138l58,10q-8,52-16,104H423Z"/><path class="cls-5" d="M471,140q.5,53.51,1,107h30V203l27,37,31-1q-.5-54-1-108H523v42l-27-33Z"/><path class="cls-6" d="M695,147q-.5,10.5-1,21h16q.5,22,1,44h21l3-46h16V148Z"/><path class="cls-7" d="M756,151q-1,17-2,34a38.23,38.23,0,0,0,5,18c1.79,3.1,4.13,7.12,9,10,5.55,3.28,11,3.1,14,3a29.85,29.85,0,0,0,14-4c1.26-.75,5.24-3.25,10-10a61.35,61.35,0,0,0,10-24V150l-26-1q1,10.5,2,21a96.68,96.68,0,0,1-2,20c-.52,2.27-1.35,5.31-4,7-.62.39-2.37,1.52-4,1-3.33-1.06-3.73-8.23-4-13a56,56,0,0,1,1-14V152Z"/><path class="cls-8" d="M692,224q.5,9.5,1,19l6,1V224Z"/><path class="cls-8" d="M702,224l7,19h7l6-20h-6l-4,13-3-12Z"/><path class="cls-8" d="M725,245V223h15v6h-8v2h6v5h-6v2h7v7Z"/><path class="cls-9" d="M767,238h-5a7.28,7.28,0,0,0,1,5c2.3,3.38,7.62,3.43,11,2,1-.41,4.06-1.72,5-5,0-.18,1-3.82-1-6-2.59-2.77-7.43-.4-9-3a2.93,2.93,0,0,1,0-3c.94-1.39,3.34-1.08,4-1a8,8,0,0,1,5,3v-6c-3.84-2.27-8.11-2.72-11-1a9.12,9.12,0,0,0-3,3,6.89,6.89,0,0,0-1,4,7.63,7.63,0,0,0,5,6c2.5.9,4.37-.09,5,1,.5.86-.2,2.26-1,3-1.48,1.36-4.23,1.3-5,0A2.44,2.44,0,0,1,767,238Z"/><path class="cls-9" d="M781,224q.5,10,1,20h6q.5-10,1-20Z"/><path class="cls-9" d="M814,222q.5,11,1,22h7c.22-7,.17-9.88,0-10.81,0,0,0-.18,0-.19.31-.12,5,11,5,11h10V223h-7c-.33,3.33-.67,6.67-1,10l-6-11Z"/><path class="cls-9" d="M801,223h3.66l4.34-3h0v-4h-3Z"/><path class="cls-10" d="M451,25a82.14,82.14,0,0,0-12,22c-3.36,9.33-4,16.63-5,27-1.1,11.78-.72,20.12,0,36,.39,8.61.9,20,2,20s1.3-10.39,5-28c2.55-12.12,4.89-18.87,7-24,3.76-9.14,7-13.67,8-15a57.32,57.32,0,0,1,12-12l10,11q.5-12,1-24l21-7-22-7V0L465,20l-23-7Z"/><path class="cls-11" d="M471,82l13,3,9-11q.5,7.5,1,15l13,3-13,5q1,8,2,16l-8-9a45,45,0,0,0-16,6,46.42,46.42,0,0,0-18,21,53.93,53.93,0,0,1,8-27,53.33,53.33,0,0,1,14-15Z"/><path class="cls-12" d="M408,71l7-7H400l-6-18-6,18H371l14,11-6,17,10-8a50.46,50.46,0,0,1,17,11c12.23,12.07,14.47,26.94,15,32a52.78,52.78,0,0,0-13-56Z"/><path class="cls-9" d="M681,224c1.9.75,5.66,2.24,7,6,1.28,3.59-.46,6.95-1,8a12.79,12.79,0,0,1-7,6l-10,1q-.5-10.5-1-21A17.37,17.37,0,0,1,681,224Zm-7,4q.5,6,1,12c5,.13,8.38-3.91,8-7S678.69,227,674,228Z"/><path class="cls-13" d="M752,223a6.57,6.57,0,0,1,1,0c.59,0,4.06.26,6,3a6.9,6.9,0,0,1,0,8,6.18,6.18,0,0,1-3,2l4,7v2h-6s-1.17-2.74-3-7h-3v7h-6V223Zm-5,3v8h5a3.52,3.52,0,0,0,2.51-2,4.67,4.67,0,0,0,0-4,3.31,3.31,0,0,0-3.35-2Z"/><path class="cls-9" d="M813,234c.29,6.32-5.85,11.5-12,11-5-.41-9.77-4.6-10-10-.26-6,5.11-11,11-11C807.58,224,812.74,228.43,813,234Zm-11.51-6a6.72,6.72,0,0,0-6.49,6.93,6.59,6.59,0,0,0,6.49,6.07,6.73,6.73,0,0,0,6.5-6.93A6.6,6.6,0,0,0,801.49,228Z"/><path class="cls-14" d="M261,134l30,113-33,1-6-11H236l-3,16-41,1,27-120Zm-17,66,11-26H232Z"/><path class="cls-15" d="M634,134q14.5,56,29,112H632l-5-10H609l-3,15-39,1,27-118Zm-16,70,14-27-30,1Z"/></g></g></svg>